grf
version=1
nRows=9
nColumns=46
inDegrees=yes
endheader
time	ground_force_1_vx	ground_force_1_vy	ground_force_1_vz	ground_force_1_px	ground_force_1_py	ground_force_1_pz	ground_moment_1_mx	ground_moment_1_my	ground_moment_1_mz	ground_force_2_vx	ground_force_2_vy	ground_force_2_vz	ground_force_2_px	ground_force_2_py	ground_force_2_pz	ground_moment_2_mx	ground_moment_2_my	ground_moment_2_mz	ground_force_3_vx	ground_force_3_vy	ground_force_3_vz	ground_force_3_px	ground_force_3_py	ground_force_3_pz	ground_moment_3_mx	ground_moment_3_my	ground_moment_3_mz	ground_force_4_vx	ground_force_4_vy	ground_force_4_vz	ground_force_4_px	ground_force_4_py	ground_force_4_pz	ground_moment_4_mx	ground_moment_4_my	ground_moment_4_mz	ground_force_5_vx	ground_force_5_vy	ground_force_5_vz	ground_force_5_px	ground_force_5_py	ground_force_5_pz	ground_moment_5_mx	ground_moment_5_my	ground_moment_5_mz
2.478500	0.000000	0.000000	0.000000	0.000000	0.000000	0.000000	0.000000	0.000000	0.000000	0.000000	0.000000	0.000000	0.000000	0.000000	0.000000	0.000000	0.000000	0.000000	0.000000	0.000000	0.000000	0.000000	0.000000	0.000000	0.000000	0.000000	0.000000	14.473813	417.622257	4.213252	1.082895	0.000000	0.238294	0.000000	4.663637	-0.000000	-17.143848	477.799414	-6.010124	1.383552	0.000000	0.266898	0.000000	-3.878669	0.000000
2.479000	0.000000	0.000000	0.000000	0.000000	0.000000	0.000000	0.000000	0.000000	0.000000	0.000000	0.000000	0.000000	0.000000	0.000000	0.000000	0.000000	0.000000	0.000000	0.000000	0.000000	0.000000	0.000000	0.000000	0.000000	0.000000	0.000000	0.000000	14.473206	417.768950	4.170782	1.082891	0.000000	0.238323	0.000000	4.662795	-0.000000	-17.160092	477.785817	-6.011259	1.383560	0.000000	0.266930	0.000000	-3.876249	0.000000
2.479500	0.000000	0.000000	0.000000	0.000000	0.000000	0.000000	0.000000	0.000000	0.000000	0.000000	0.000000	0.000000	0.000000	0.000000	0.000000	0.000000	0.000000	0.000000	0.000000	0.000000	0.000000	0.000000	0.000000	0.000000	0.000000	0.000000	0.000000	14.472368	417.914158	4.127982	1.082887	0.000000	0.238351	0.000000	4.661952	-0.000000	-17.176428	477.770389	-6.012196	1.383569	0.000000	0.266961	0.000000	-3.873693	0.000000
2.480000	0.000000	0.000000	0.000000	0.000000	0.000000	0.000000	0.000000	0.000000	0.000000	0.000000	0.000000	0.000000	0.000000	0.000000	0.000000	0.000000	0.000000	0.000000	0.000000	0.000000	0.000000	0.000000	0.000000	0.000000	0.000000	0.000000	0.000000	14.471274	418.057818	4.084873	1.082884	0.000000	0.238380	0.000000	4.661117	0.000000	-17.192864	477.753135	-6.012956	1.383578	0.000000	0.266993	0.000000	-3.871000	0.000000
2.480500	0.000000	0.000000	0.000000	0.000000	0.000000	0.000000	0.000000	0.000000	0.000000	0.000000	0.000000	0.000000	0.000000	0.000000	0.000000	0.000000	0.000000	0.000000	0.000000	0.000000	0.000000	0.000000	0.000000	0.000000	0.000000	0.000000	0.000000	14.469904	418.199876	4.041480	1.082881	0.000000	0.238408	0.000000	4.660296	0.000000	-17.209412	477.734050	-6.013565	1.383587	0.000000	0.267025	0.000000	-3.868169	0.000000
2.481000	0.000000	0.000000	0.000000	0.000000	0.000000	0.000000	0.000000	0.000000	0.000000	0.000000	0.000000	0.000000	0.000000	0.000000	0.000000	0.000000	0.000000	0.000000	0.000000	0.000000	0.000000	0.000000	0.000000	0.000000	0.000000	0.000000	0.000000	14.468244	418.340288	3.997833	1.082878	0.000000	0.238437	0.000000	4.659497	0.000000	-17.226084	477.713121	-6.014047	1.383595	0.000000	0.267057	0.000000	-3.865200	0.000000
2.481500	0.000000	0.000000	0.000000	0.000000	0.000000	0.000000	0.000000	0.000000	0.000000	0.000000	0.000000	0.000000	0.000000	0.000000	0.000000	0.000000	0.000000	0.000000	0.000000	0.000000	0.000000	0.000000	0.000000	0.000000	0.000000	0.000000	0.000000	14.466292	418.479012	3.953962	1.082876	0.000000	0.238466	0.000000	4.658724	0.000000	-17.242891	477.690328	-6.014426	1.383604	0.000000	0.267089	0.000000	-3.862093	0.000000
2.482000	0.000000	0.000000	0.000000	0.000000	0.000000	0.000000	0.000000	0.000000	0.000000	0.000000	0.000000	0.000000	0.000000	0.000000	0.000000	0.000000	0.000000	0.000000	0.000000	0.000000	0.000000	0.000000	0.000000	0.000000	0.000000	0.000000	0.000000	14.464051	418.616013	3.909898	1.082873	0.000000	0.238495	0.000000	4.657982	0.000000	-17.259836	477.665646	-6.014725	1.383612	0.000000	0.267121	0.000000	-3.858851	0.000000
2.482500	0.000000	0.000000	0.000000	0.000000	0.000000	0.000000	0.000000	0.000000	0.000000	0.000000	0.000000	0.000000	0.000000	0.000000	0.000000	0.000000	0.000000	0.000000	0.000000	0.000000	0.000000	0.000000	0.000000	0.000000	0.000000	0.000000	0.000000	14.461533	418.751260	3.865672	1.082872	0.000000	0.238524	0.000000	4.657276	0.000000	-17.276912	477.639052	-6.014966	1.383620	0.000000	0.267153	0.000000	-3.855479	0.000000
